#!OML:ASF H:\Punching\Project 1\Capture day 1\Session 1\female.ASF
:FULLY-SPECIFIED
:DEGREES
2839
root 0.465579 14.7272 0.0023421 17.9667 -35.6663 -4.74929
lowerback -1.41534 2.69531 3.43603
upperback -8.23176 3.61338 -0.573056
thorax -7.56973 1.50291 -2.69266
lowerneck -5.54312 11.3779 18.9434
upperneck 34.0119 18.0762 -14.2058
head 16.3808 8.61384 -6.33475
rclavicle 3.4837e-014 4.77083e-015
rhumerus 16.833 32.4317 -70.8054
rradius 126.441
rwrist -11.0408
rhand -31.5222 8.07406
rfingers 7.12502
rthumb -4.78741 -21.8519
lclavicle 3.4837e-014 4.77083e-015
lhumerus 9.25777 -8.96467 56.0587
lradius 136.882
lwrist 2.43577
lhand -30.1216 3.1772
lfingers 7.12502
lthumb -3.4349 33.1293
rfemur -1.88474 9.94475 11.1665
rtibia 26.8404
rfoot -24.3494 -24.0634
rtoes -23.6233
lfemur -52.5834 17.5777 -16.6589
ltibia 50.5149
lfoot -13.2722 26.012
ltoes 20.5219
2840
root 0.415855 14.723 -0.128581 18.1162 -35.963 -4.86759
lowerback -1.29145 2.53987 3.44582
upperback -8.21206 3.4052 -0.630774
thorax -7.63073 1.39491 -2.75552
lowerneck -5.33704 11.5683 19.0632
upperneck 33.5292 18.459 -14.6155
head 16.2587 8.75643 -6.44112
rclavicle 6.55617e-014 8.34896e-015
rhumerus 17.1938 32.8197 -70.7899
rradius 126.409
rwrist -10.995
rhand -31.4651 8.07272
rfingers 7.12502
rthumb -4.73225 -21.8544
lclavicle 6.55617e-014 8.34896e-015
lhumerus 9.14966 -8.52543 55.8306
lradius 136.972
lwrist 2.4552
lhand -30.054 2.7856
lfingers 7.12502
lthumb -3.36961 32.7387
rfemur -2.07369 10.2751 11.6484
rtibia 26.4905
rfoot -25.2742 -24.2281
rtoes -23.1112
lfemur -52.5841 17.5239 -15.9154
ltibia 50.0636
lfoot -12.8891 26.4118
ltoes 21.0851
2841
root 0.366745 14.7205 -0.258972 18.2848 -36.1818 -5.04715
lowerback -1.15939 2.37016 3.53298
upperback -8.19211 3.18211 -0.665538
thorax -7.69582 1.27507 -2.83634
lowerneck -5.10288 11.7494 19.1455
upperneck 33.0387 18.8288 -15.0115
head 16.1198 8.89347 -6.53769
rclavicle -3.73715e-014 -2.50469e-014
rhumerus 17.5296 33.2051 -70.7612
rradius 126.376
rwrist -10.9138
rhand -31.426 8.10037
rfingers 7.12502
rthumb -4.69446 -21.8276
lclavicle -3.73715e-014 -2.50469e-014
lhumerus 9.00783 -8.08934 55.651
lradius 137.041
lwrist 2.50146
lhand -29.944 2.31095
lfingers 7.12502
lthumb -3.26336 32.2657
rfemur -2.25825 10.5334 12.2209
rtibia 26.1757
rfoot -26.1179 -24.4081
rtoes -22.3645
lfemur -52.5367 17.3736 -15.0591
ltibia 49.5866
lfoot -12.4893 26.825
ltoes 21.5775
2842
root 0.318513 14.7208 -0.387682 18.4836 -36.3366 -5.29963
lowerback -1.0263 2.18933 3.69731
upperback -8.16522 2.94875 -0.671445
thorax -7.75432 1.14632 -2.92842
lowerneck -4.86503 11.9281 19.2007
upperneck 32.5409 19.1952 -15.4072
head 15.9763 9.02799 -6.6291
rclavicle -9.21864e-015 -2.46493e-014
rhumerus 17.8574 33.5885 -70.7063
rradius 126.345
rwrist -10.8014
rhand -31.4066 8.14121
rfingers 7.12502
rthumb -4.6758 -21.7872
lclavicle -9.21864e-015 -2.46493e-014
lhumerus 8.83735 -7.63292 55.5211
lradius 137.094
lwrist 2.59219
lhand -29.799 1.73655
lfingers 7.12502
lthumb -3.12335 31.6934
rfemur -2.44366 10.7642 12.8896
rtibia 25.8878
rfoot -26.8647 -24.6452
rtoes -21.4281
lfemur -52.4305 17.1159 -14.0632
ltibia 49.0861
lfoot -12.0762 27.2442
ltoes 22.0156
2843
root 0.27141 14.7242 -0.513802 18.7222 -36.4412 -5.62475
lowerback -0.907393 2.0112 3.93369
upperback -8.13103 2.72314 -0.649486
thorax -7.79637 1.01819 -3.03021
lowerneck -4.64515 12.0996 19.2263
upperneck 32.0489 19.5488 -15.7995
head 15.8363 9.15502 -6.71543
rclavicle -5.00937e-014 -6.75868e-015
rhumerus 18.1727 33.9521 -70.6144
rradius 126.319
rwrist -10.6681
rhand -31.4027 8.17623
rfingers 7.12502
rthumb -4.67204 -21.7523
lclavicle -5.00937e-014 -6.75868e-015
lhumerus 8.66015 -7.171 55.4566
lradius 137.13
lwrist 2.71833
lhand -29.6114 1.04958
lfingers 7.12502
lthumb -2.9422 31.009
rfemur -2.63809 10.974 13.6404
rtibia 25.6109
rfoot -27.5036 -24.9368
rtoes -20.3405
lfemur -52.2594 16.7282 -12.9065
ltibia 48.5652
lfoot -11.6672 27.6672
ltoes 22.3925
2844
root 0.225682 14.7301 -0.636721 19.0013 -36.513 -6.00812
lowerback -0.816185 1.83868 4.23009
upperback -8.0942 2.50774 -0.606149
thorax -7.81962 0.892449 -3.14177
lowerneck -4.42855 12.2627 19.2385
upperneck 31.565 19.8894 -16.1942
head 15.7006 9.27664 -6.80304
rclavicle -1.71452e-015 4.33351e-014
rhumerus 18.4547 34.2934 -70.4989
rradius 126.308
rwrist -10.5374
rhand -31.4219 8.22848
rfingers 7.12502
rthumb -4.6905 -21.6996
lclavicle -1.71452e-015 4.33351e-014
lhumerus 8.44596 -6.78527 55.4423
lradius 137.213
lwrist 2.78402
lhand -29.4895 0.62118
lfingers 7.12502
lthumb -2.82441 30.5822
rfemur -2.84738 11.1418 14.4426
rtibia 25.3283
rfoot -28.0338 -25.251
rtoes -19.1291
lfemur -52.0215 16.1901 -11.5844
ltibia 48.0283
lfoot -11.2837 28.0947
ltoes 22.7063
2845
root 0.181689 14.7378 -0.75597 19.3165 -36.5653 -6.42231
lowerback -0.758825 1.68474 4.54676
upperback -8.05684 2.31774 -0.547603
thorax -7.82256 0.779159 -3.24833
lowerneck -4.25766 12.4122 19.2597
upperneck 31.1124 20.2067 -16.5996
head 15.5922 9.38789 -6.90088
rclavicle -2.12451e-014 9.14409e-015
rhumerus 18.707 34.5818 -70.3501
rradius 126.309
rwrist -10.4269
rhand -31.4223 8.23993
rfingers 7.12502
rthumb -4.6909 -21.6881
lclavicle -2.12451e-014 9.14409e-015
lhumerus 8.23256 -6.51019 55.4814
lradius 137.33
lwrist 2.74237
lhand -29.4228 0.493376
lfingers 7.12502
lthumb -2.76004 30.4553
rfemur -3.08327 11.2302 15.2541
rtibia 25.0345
rfoot -28.4477 -25.5463
rtoes -17.8457
lfemur -51.7281 15.4887 -10.117
ltibia 47.4802
lfoot -10.9625 28.5283
ltoes 22.9936
2846
root 0.139423 14.7469 -0.87166 19.6609 -36.6187 -6.84827
lowerback -0.742933 1.54382 4.86658
upperback -8.02412 2.14415 -0.47298
thorax -7.80736 0.674891 -3.33907
lowerneck -4.08574 12.5527 19.2721
upperneck 30.6693 20.5125 -17.012
head 15.4887 9.49444 -7.00304
rclavicle -4.92986e-014 -1.27222e-014
rhumerus 18.9395 34.8495 -70.1807
rradius 126.313
rwrist -10.3521
rhand -31.4319 8.2562
rfingers 7.12502
rthumb -4.70016 -21.6717
lclavicle -4.92986e-014 -1.27222e-014
lhumerus 7.98343 -6.33825 55.5717
lradius 137.485
lwrist 2.58601
lhand -29.439 0.687283
lfingers 7.12502
lthumb -2.77573 30.649
rfemur -3.3558 11.2442 16.0447
rtibia 24.7351
rfoot -28.7418 -25.7998
rtoes -16.5476
lfemur -51.3895 14.6338 -8.52859
ltibia 46.9252
lfoot -10.7402 28.9833
ltoes 23.3024
2847
root 0.0988666 14.7575 -0.983864 20.0138 -36.6908 -7.24933
lowerback -0.761421 1.41793 5.14936
upperback -7.9999 1.98777 -0.389975
thorax -7.78238 0.582143 -3.40024
lowerneck -3.91216 12.6833 19.2775
upperneck 30.2394 20.8051 -17.4286
head 15.3911 9.59611 -7.10921
rclavicle -8.1626e-014 -9.54166e-015
rhumerus 19.1496 35.0952 -69.9986
rradius 126.319
rwrist -10.3271
rhand -31.4426 8.27352
rfingers 7.12502
rthumb -4.71053 -21.6541
lclavicle -8.1626e-014 -9.54166e-015
lhumerus 7.70579 -6.26804 55.7102
lradius 137.673
lwrist 2.33343
lhand -29.5328 1.1876
lfingers 7.12502
lthumb -2.86626 31.1481
rfemur -3.67348 11.1804 16.7726
rtibia 24.444
rfoot -28.9156 -25.9904
rtoes -15.2987
lfemur -51.0199 13.6505 -6.87815
ltibia 46.3659
lfoot -10.658 29.4714
ltoes 23.7039
2848
root 0.0598412 14.77 -1.09271 20.3511 -36.7913 -7.59078
lowerback -0.805685 1.30387 5.35989
upperback -7.98557 1.84281 -0.306691
thorax -7.75438 0.499867 -3.42079
lowerneck -3.73444 12.8066 19.2805
upperneck 29.8213 21.0857 -17.843
head 15.2976 9.69452 -7.21706
rclavicle 5.10814e-014 1.35174e-014
rhumerus 19.3367 35.3193 -69.8141
rradius 126.331
rwrist -10.3587
rhand -31.4437 8.28399
rfingers 7.12502
rthumb -4.71163 -21.6436
lclavicle 5.10814e-014 1.35174e-014
lhumerus 7.41168 -6.26789 55.8863
lradius 137.878
lwrist 2.04971
lhand -29.6712 1.83047
lfingers 7.12502
lthumb -2.99993 31.7891
rfemur -4.03491 11.0444 17.4046
rtibia 24.1785
rfoot -28.9939 -26.0907
rtoes -14.1209
lfemur -50.6356 12.5727 -5.23123
ltibia 45.8058
lfoot -10.7302 30.0004
ltoes 24.2196
2849
root 0.0223346 14.7846 -1.19832 20.6541 -36.9197 -7.8513
lowerback -0.867741 1.20241 5.48896
upperback -7.98238 1.70999 -0.232432
thorax -7.7284 0.428452 -3.40578
lowerneck -3.54598 12.9189 19.2761
upperneck 29.4151 21.3466 -18.2438
head 15.2016 9.7871 -7.32286
rclavicle -2.65812e-014 -1.59028e-015
rhumerus 19.4899 35.5177 -69.6369
rradius 126.345
rwrist -10.4339
rhand -31.4491 8.31866
rfingers 7.12502
rthumb -4.71684 -21.6088
lclavicle -2.65812e-014 -1.59028e-015
lhumerus 7.11395 -6.31318 56.1004
lradius 138.085
lwrist 1.80197
lhand -29.8103 2.41292
lfingers 7.12502
lthumb -3.13426 32.3696
rfemur -4.43556 10.8507 17.9258
rtibia 23.9571
rfoot -29.0084 -26.0924
rtoes -13.0251
lfemur -50.2543 11.431 -3.6399
ltibia 45.2498
lfoot -10.9892 30.5772
ltoes 24.8882
2850
root -0.0139473 14.8017 -1.30068 20.904 -37.0773 -8.01585
lowerback -0.934302 1.10566 5.52033
upperback -7.98788 1.57899 -0.170001
thorax -7.70999 0.363639 -3.34888
lowerneck -3.35303 13.0261 19.2727
upperneck 29.0219 21.5947 -18.6303
head 15.1077 9.87724 -7.42577
rclavicle -1.00324e-014 8.74653e-015
rhumerus 19.6165 35.7006 -69.4783
rradius 126.36
rwrist -10.5346
rhand -31.4472 8.34191
rfingers 7.12502
rthumb -4.71495 -21.5856
lclavicle -1.00324e-014 8.74653e-015
lhumerus 6.80859 -6.36522 56.3421
lradius 138.283
lwrist 1.61724
lhand -29.9355 2.83817
lfingers 7.12502
lthumb -3.25514 32.7931
rfemur -4.86587 10.6269 18.3294
rtibia 23.7933
rfoot -28.9666 -26.018
rtoes -12.0698
lfemur -49.8859 10.2687 -2.1526
ltibia 44.7059
lfoot -11.4503 31.1824
ltoes 25.7405
2851
root -0.0491104 14.8206 -1.39989 21.0968 -37.2524 -8.09059
lowerback -0.999361 1.01174 5.4696
upperback -7.99604 1.44808 -0.124977
thorax -7.69538 0.303586 -3.26468
lowerneck -3.17067 13.1306 19.2776
upperneck 28.6411 21.8287 -18.9952
head 15.0182 9.96468 -7.52292
rclavicle -3.34517e-014 0
rhumerus 19.7236 35.8591 -69.347
rradius 126.374
rwrist -10.6314
rhand -31.4558 8.39075
rfingers 7.12502
rthumb -4.72326 -21.5366
lclavicle -3.34517e-014 0
lhumerus 6.53538 -6.36527 56.5916
lradius 138.445
lwrist 1.58572
lhand -29.9807 2.86934
lfingers 7.12502
lthumb -3.29879 32.8236
rfemur -5.31677 10.384 18.6281
rtibia 23.697
rfoot -28.8867 -25.8735
rtoes -11.2734
lfemur -49.5419 9.1298 -0.79792
ltibia 44.1831
lfoot -12.0653 31.7858
ltoes 26.6963
2852
root -0.0832444 14.8405 -1.49593 21.2292 -37.4322 -8.08646
lowerback -1.05713 0.916259 5.35324
upperback -8.00234 1.31248 -0.0966237
thorax -7.68302 0.245023 -3.16141
lowerneck -3.00274 13.2336 19.2936
upperneck 28.272 22.049 -19.3357
head 14.9332 10.0496 -7.61317
rclavicle -1.73812e-014 2.46493e-014
rhumerus 19.813 35.9932 -69.2481
rradius 126.39
rwrist -10.7008
rhand -31.4737 8.4516
rfingers 7.12502
rthumb -4.74052 -21.4754
lclavicle -1.73812e-014 2.46493e-014
lhumerus 6.28395 -6.37258 56.8298
lradius 138.606
lwrist 1.59439
lhand -30.023 2.83402
lfingers 7.12502
lthumb -3.3397 32.7876
rfemur -5.77637 10.1345 18.8395
rtibia 23.6741
rfoot -28.7867 -25.6724
rtoes -10.6418
lfemur -49.2282 8.06607 0.395502
ltibia 43.6919
lfoot -12.774 32.3275
ltoes 27.7568
2853
root -0.116344 14.8601 -1.58857 21.3062 -37.6048 -8.01897
lowerback -1.10428 0.813723 5.1895
upperback -8.00832 1.16603 -0.0800091
thorax -7.67683 0.183673 -3.0438
lowerneck -2.83174 13.3326 19.3201
upperneck 27.9055 22.2538 -19.6558
head 14.8443 10.1319 -7.69922
rclavicle -6.13748e-014 1.82882e-014
rhumerus 19.8859 36.1184 -69.1868
rradius 126.401
rwrist -10.7369
rhand -31.5017 8.51403
rfingers 7.12502
rthumb -4.7676 -21.4123
lclavicle -6.13748e-014 1.82882e-014
lhumerus 6.03257 -6.41705 57.0372
lradius 138.802
lwrist 1.5699
lhand -30.1205 3.00563
lfingers 7.12502
lthumb -3.43385 32.9577
rfemur -6.23741 9.88539 18.982
rtibia 23.7244
rfoot -28.6798 -25.4294
rtoes -10.1749
lfemur -48.9524 7.13002 1.40524
ltibia 43.2428
lfoot -13.3733 32.7569
ltoes 28.767
